<?xml version="1.0" encoding="UTF-8"?>
<svg id="Layer_1" data-name="Layer 1" xmlns="http://www.w3.org/2000/svg" version="1.1" viewBox="0 0 250 192.51389">
  <defs>
    <style>
      .cls-1 {
        fill: #000;
        stroke-width: 0px;
      }
    </style>
  </defs>
  <path id="path-01" class="cls-1" d="M7.73102,35.87616c-.00702-.02975-.01862-.05997-.02533-.08972-.13336-.55191-.20416-1.09558-.20477-1.62918C7.51953,19.8912,52.21619,0,125,0s117.48047,19.8912,117.49908,34.15726c-.00061.53299-.07111,1.07651-.20432,1.62796-.00687.03052-.01862.06119-.02594.09171-1.00128,3.93646-5.32272,8.28995-12.43164,12.44995-1.37146.79956-2.83035,1.57745-4.35745,2.33704-22.75848-10.23575-59.28162-16.88889-100.47974-16.88889s-77.7005,6.65268-100.45441,16.88828c-1.53076-.76126-2.99316-1.54099-4.36829-2.34253-7.1167-4.15466-11.44409-8.50662-12.44629-12.44461ZM249.75546,36.70197c.15892-.83215.24454-1.6788.24454-2.53571v41.28403c0,18.47702-36.04416,34.12659-85.961,39.59183.23987-1.08856.37537-2.21573.37537-3.3754v-30.3894c0-2.66022-.67017-5.16525-1.84387-7.36252,1.2326-.12939,2.44812-.27145,3.66394-.41321.11658-.01358.23499-.02594.35187-.03967,5.03235-.59174,9.91089-1.28952,14.62433-2.08206.24902-.04181.49561-.08469.74341-.12695,2.23328-.38193,4.43207-.78262,6.58508-1.20712.06866-.01358.13885-.02609.20753-.03968,15.7623-3.12243,31.83503-7.49756,45.73949-15.77578,3.38247-2.0138,6.64776-4.28321,9.37752-7.11957,2.73719-2.84408,5.13835-6.46358,5.8918-10.40877ZM189.68109,91.82755c0-4.58176-3.71429-8.2959-8.2959-8.2959-4.58191,0-8.2959,3.71414-8.2959,8.2959s3.71399,8.29575,8.2959,8.29575c4.5816,0,8.2959-3.71414,8.2959-8.29575ZM226.44424,82.51343c0-4.5816-3.71414-8.29575-8.29575-8.29575s-8.2959,3.71414-8.2959,8.29575,3.71414,8.2959,8.2959,8.2959,8.29575-3.71414,8.29575-8.2959ZM85.60089,81.27731v30.3894c0,1.15997.1355,2.28729.37537,3.37616C36.06293,109.57809,0,93.92807,0,75.45029v-41.28402c0,8.80118,7.91905,15.35475,14.76399,19.53569,15.40806,9.41135,33.19473,13.79881,50.77405,17.05695,5.95125,1.103,11.96513,2.21419,18.0078,2.71781,1.29272.15137,2.58667.30228,3.89832.43976-1.1731,2.19696-1.84326,4.70123-1.84326,7.36084ZM40.16266,82.51343c0-4.5816-3.71429-8.29575-8.2959-8.29575s-8.2959,3.71414-8.2959,8.29575,3.71429,8.2959,8.2959,8.2959,8.2959-3.71414,8.2959-8.2959ZM76.92596,91.82755c0-4.58176-3.71429-8.2959-8.2959-8.2959s-8.2959,3.71414-8.2959,8.2959,3.71429,8.29575,8.2959,8.29575,8.2959-3.71414,8.2959-8.29575ZM250,34.16626v-.01602c0,.00229-.00076.00473-.00076.00702,0,.00305.00076.00595.00076.009ZM153.58978,74.72519c-9.18579.71686-18.74817,1.10794-28.58978,1.10794-9.83673,0-19.39423-.39078-28.57605-1.10687-2.00623,1.4917-3.32306,3.85925-3.32306,6.55106v30.3894c0,4.52026,3.66394,8.18481,8.1842,8.18481h19.97253v11.36276c-15.29297,1.85394-27.14905,14.85626-27.14905,30.64926,0,15.79056,11.85242,28.79089,27.14172,30.64819v-17.79877c-4.15741-1.53488-7.13745-5.49835-7.13745-10.1889,0-6.01715,4.87762-10.89508,10.89478-10.89508s10.89478,4.87793,10.89478,10.89508c0,4.69589-2.98706,8.66241-7.1521,10.19333v17.79648c15.29633-1.85059,27.15637-14.85458,27.15637-30.65033,0-15.793-11.85608-28.79532-27.14905-30.64926v-11.36276h19.97253c4.52026,0,8.1842-3.66455,8.1842-8.18481v-30.3894c0-2.69241-1.31744-5.06058-3.32458-6.55212Z"/>
</svg>