<?xml version="1.0" encoding="UTF-8"?>
<svg id="Layer_1" data-name="Layer 1" xmlns="http://www.w3.org/2000/svg" version="1.1" viewBox="0 0 250 214.08652">
  <defs>
    <style>
      .cls-1 {
        fill: #000;
        stroke-width: 0px;
      }
    </style>
  </defs>
  <path id="path-01" class="cls-1" d="M69.54085,117.02208h32.5219c1.50954,0,2.73266,1.22311,2.73266,2.73266v10.2101c0,1.50954-1.22311,2.73266-2.73266,2.73266h-1.06655v21.42471c2.39063-4.13301,6.81741-6.80873,11.79081-6.80873.57197,0,1.14039.03558,1.70435.10585,2.7718-4.91469,8.05297-8.08322,13.78782-8.08322,5.53647,0,10.53389,2.82784,13.39108,7.39561,1.43571-.5017,2.94703-.76055,4.47615-.76055,4.56154,0,8.81175,2.31724,11.32558,6.04351,2.33904-.00623,4.42633.87352,5.96167,2.33281v-44.7468c0-8.6225,2.59255-16.86072,7.36002-23.84714v-29.61133c0-5.71349-1.04965-11.31135-3.11871-16.637l-8.05075-20.71641h-35.67797c-1.50954,0-2.73266-1.22311-2.73266-2.73266s1.22311-2.73266,2.73266-2.73266h34.81468V3.45852c0-1.90717-1.55135-3.45852-3.45763-3.45852h-70.2716c-1.90717,0-3.45852,1.55135-3.45852,3.45852v9.86496h19.14282c1.50954,0,2.73266,1.22311,2.73266,2.73266s-1.22311,2.73266-2.73266,2.73266h-20.0059l-8.05008,20.71641c-2.06906,5.32388-3.11871,10.92173-3.11871,16.637l-.00044,60.87988ZM81.87738,67.07105c0-6.19473,5.04011-11.23485,11.23574-11.23485,5.3728,0,9.87652,3.79031,10.97777,8.83754h32.1523c1.10125-5.04723,5.60586-8.83754,10.97866-8.83754,6.19473,0,11.23485,5.04011,11.23485,11.23485,0,3.15785-1.34676,6.08799-3.55815,8.16061,2.21139,2.07173,3.55815,5.00186,3.55815,8.15972,0,6.19562-5.04011,11.23574-11.23485,11.23574-5.3728,0-9.87741-3.7912-10.97866-8.83843h-32.1523c-1.10125,5.04723-5.60497,8.83843-10.97777,8.83843-6.19562,0-11.23574-5.04011-11.23574-11.23574,0-3.15785,1.34676-6.08799,3.55726-8.15972-2.2105-2.07262-3.55726-5.00275-3.55726-8.16061ZM93.11312,61.30152c3.18098,0,5.76953,2.58855,5.77398,5.63077-.00801.07205-.02758.29444-.03113.36649-.02847.74276.24551,1.46596.76055,2.00146.51593.53639,1.22667.83883,1.97032.83883h37.16039c.74365,0,1.45439-.30244,1.97032-.83883.51504-.5355.78902-1.25869.76055-2.00146-.00356-.07205-.01779-.15567-.02669-.22772,0-3.18098,2.58855-5.76953,5.77042-5.76953,3.18098,0,5.76953,2.58855,5.76953,5.76953,0,2.56275-1.74349,4.83552-4.23953,5.52758-1.18308.32735-2.00235,1.40547-2.00235,2.63303,0,1.22845.81926,2.30568,2.00324,2.63392,2.49604.69117,4.23864,2.96305,4.23864,5.5258,0,3.18187-2.58855,5.77042-5.76953,5.77042-3.18187,0-5.77042-2.58855-5.77487-5.63166.00801-.07205.02758-.29444.03113-.36649.02847-.74276-.24551-1.46596-.76055-2.00146-.51593-.53639-1.22667-.83883-1.97032-.83883h-37.16039c-.74365,0-1.45439.30244-1.97032.83883-.51504.5355-.78902,1.25869-.76055,2.00146.00356.07205.01779.15567.02669.22772,0,3.18187-2.58855,5.77042-5.76953,5.77042-3.18187,0-5.77042-2.58855-5.77042-5.77042,0-2.56275,1.7426-4.83463,4.23864-5.5258,1.18397-.32824,2.00324-1.40547,2.00324-2.63392,0-1.22756-.81926-2.30568-2.00235-2.63303-2.49604-.69206-4.23953-2.96483-4.23953-5.52758,0-3.18098,2.58855-5.76953,5.77042-5.76953ZM85.23894,166.50166c-.04803-.4292-.10141-.85796-.10141-1.29161,0-5.97413,4.56733-10.89905,10.39334-11.47191v-21.04065H3.79921v33.80416h81.43973ZM45.88607,155.53234c-1.23067-.92067-2.84296-1.15062-4.22863-.48613l-12.9303,6.19918,4.92492-11.64581-4.92492-11.64626,12.9303,6.19918c1.38568.66448,2.99796.43454,4.22863-.48613,2.97016-2.22162,7.54438-3.64999,12.61719-3.64999,8.80263,0,15.74324,6.45514,15.74324,9.5832,0,3.12783-6.94061,9.58298-15.74324,9.58298-5.0728,0-9.64702-1.42837-12.61719-3.65021ZM34.41594,117.02208h-14.08025c-2.42443-3.50033-3.0689-7.46143-1.20265-9.32768.85662-.85751,2.03793-1.09324,3.07869-1.09324.58354,0,1.12348.07472,1.53623.15478,2.34215.45633,4.85776,1.88938,6.90102,3.93264,1.88026,1.88115,3.20633,4.15658,3.76696,6.3335ZM99.33009,122.48739v4.74479H0v-4.74479h99.33009ZM80.20016,176.2274c-.29799.15411-.59332.31312-.88153.48435H0v-4.74479h80.56198c-.31823.88198-.50815,1.82333-.50815,2.81005,0,.49681.06316.97716.14633,1.45039ZM244.65633,186.22446c0,3.81878-3.10626,6.92504-6.92415,6.92504h-44.14369l-2.66105-7.53971c-1.24402-3.5239-3.59284-6.43402-6.56656-8.41857h60.29545v9.03324ZM234.13578,83.77032c5.17577,5.29986,8.56179,11.89888,9.88408,19.03964h-74.48445c1.3223-7.14075,4.70832-13.73978,9.88408-19.03964l10.29372-10.54012h34.12885l10.29372,10.54012ZM168.96256,108.27527c-.01557.44299-.0636.8802-.0636,1.32541v46.62461c6.00437.49125,10.74293,5.52558,10.74293,11.65426,0,.07383-.00089.14766-.00267.22238,1.20443.95091,2.11888,2.20961,2.66639,3.62397h62.35072v-62.12523c0-.44521-.04803-.88242-.0636-1.32541h-75.63017ZM225.5562,132.34746c2.72954,0,4.94204,2.6924,4.94204,6.01371,0,3.32108-2.2125,6.01327-4.94204,6.01327-2.72932,0-4.94182-2.69218-4.94182-6.01327,0-3.32131,2.2125-6.01371,4.94182-6.01371ZM214.31602,120.72033c2.7291,0,4.94182,2.69218,4.94182,6.01349s-2.21272,6.01349-4.94182,6.01349c-2.72954,0-4.94226-2.69218-4.94226-6.01349s2.21272-6.01349,4.94226-6.01349ZM199.23949,120.72033c2.72932,0,4.94204,2.69218,4.94204,6.01349s-2.21272,6.01349-4.94204,6.01349-4.94204-2.69218-4.94204-6.01349,2.21272-6.01349,4.94204-6.01349ZM196.01025,144.62595c1.57848-.80258,2.76179-2.25831,3.3391-3.93242.56641-1.64253,1.69257-3.13206,3.40804-4.17326,2.43488-1.47796,5.60564-1.47796,8.04052,0,1.71547,1.04142,2.84185,2.53118,3.40826,4.17393.57686,1.67389,1.76039,3.12917,3.33865,3.93175,3.13895,1.59627,5.17288,5.03344,4.63471,8.91138-.50259,3.6233-3.38602,6.62972-6.98597,7.27752-1.96187.3527-3.81567.03558-5.39459-.75433-1.88582-.94313-4.15725-.94291-6.04307.00044-1.57893.78946-3.43228,1.10658-5.3937.75388-3.59995-.64758-6.48339-3.65333-6.98642-7.27641-.53861-3.87838,1.49531-7.31599,4.63449-8.91249ZM187.99909,132.34657c2.72954,0,4.94204,2.69218,4.94204,6.01327,0,3.32131-2.2125,6.01371-4.94204,6.01371s-4.94204-2.6924-4.94204-6.01371c0-3.32108,2.2125-6.01327,4.94204-6.01327ZM214.54619,33.32248v12.08213h-15.53709v-12.08213h15.53709ZM221.09963,50.86992c.64047,0,1.16085.52127,1.16085,1.16173v15.73323h-30.96565v-15.73323c0-.64047.52038-1.16173,1.16085-1.16173h28.64396ZM246.95445,25.26951l3.04555,10.74338h-11.84485l-.76411-2.69485c-.91578-3.2308-3.8657-5.46086-7.2237-5.46086h-37.10168v-7.10695c0-3.89083,3.1543-7.04513,7.04513-7.04513h31.54496c7.11184,0,13.35906,4.7221,15.29869,11.56442ZM90.88483,167.03894c-.1868-.59154-.28198-1.2071-.28198-1.82889,0-3.34377,2.7202-6.06397,6.06397-6.06397,1.39835,0,2.71309.46523,3.80188,1.34409.72942.58887,1.70613.76144,2.59033.46345.88598-.29888,1.55758-1.03008,1.77996-1.9383.90199-3.67201,4.17015-6.23654,7.94801-6.23654.8335,0,1.65454.12365,2.44178.36916,1.377.42876,2.8563-.28999,3.3669-1.64297,1.51666-4.01003,5.40838-6.70355,9.68349-6.70355,4.26444,0,8.04052,2.56542,9.62123,6.53453.29799.74988.91266,1.32897,1.67856,1.58337.765.25352,1.60383.15656,2.29145-.26597,1.29517-.79614,2.77357-1.21689,4.276-1.21689,3.15874,0,6.06931,1.85735,7.41607,4.73055.57553,1.22756,1.95698,1.84668,3.25926,1.45884.33536-.10052.59777-.14766.82727-.14766,1.58515,0,2.86164,1.24802,2.90523,2.84118.02669.97493.57108,1.8618,1.42771,2.32703.85662.46345,1.89649.43676,2.72821-.06938,1.01585-.6209,2.10197-.9349,3.22902-.9349,3.43895,0,6.23743,2.79848,6.23743,6.23743,0,.33447-.03825.69651-.1192,1.1395-.22683,1.23379.41452,2.46313,1.55669,2.98262,1.03475.47012,1.67944,1.42237,1.76751,2.51227-.78457-.1123-1.5816-.17813-2.39018-.17813h-87.04737c-.81126,0-1.61117.06583-2.39841.17924.13499-1.46551,1.35854-2.63347,2.86008-2.65126.78457-.00978,1.52733-.35493,2.03882-.95002.51148-.59421.74365-1.37967.63602-2.15713-.03825-.27487-.0676-.55151-.07027-.83616.00089-.01957.00089-.03914.00089-.05871,0-.27931-.0427-.55596-.12631-.82282ZM185.77347,187.42889c-1.61095-4.56243-5.94388-7.62778-10.78207-7.62778h-87.04737c-4.83819,0-9.17112,3.06534-10.78207,7.62866l-8.37943,23.73995c-.23929.67872-.13877,1.40458.27754,1.99256.41541.58709,1.06655.92423,1.78619.92423h121.24293c.71964,0,1.37167-.33713,1.78708-.92512.41541-.58709.51682-1.31296.27665-1.99078l-8.37943-23.74173ZM139.80467,188.06691c0,2.43955-1.62541,4.41722-3.6302,4.41722s-3.6302-1.97766-3.6302-4.41722c0-2.43978,1.62541-4.41722,3.6302-4.41722s3.6302,1.97744,3.6302,4.41722ZM130.39137,188.06691c0,2.43955-1.62518,4.41722-3.6302,4.41722s-3.6302-1.97766-3.6302-4.41722c0-2.43978,1.62518-4.41722,3.6302-4.41722s3.6302,1.97744,3.6302,4.41722ZM119.74295,199.74319c-2.00479,0-3.6302-1.97766-3.6302-4.41722,0-2.43978,1.62541-4.41722,3.6302-4.41722s3.6302,1.97744,3.6302,4.41722c0,2.43955-1.62541,4.41722-3.6302,4.41722ZM141.08449,204.80221c-.31401,2.26231-2.11443,4.13946-4.36229,4.54397-1.22467.22016-2.38218.02224-3.36801-.47101-1.17752-.58887-2.59567-.58887-3.77319.00022-.98583.49303-2.14289.69095-3.36756.47079-2.24786-.40429-4.04806-2.28122-4.36206-4.54331-.33647-2.42132.93357-4.56777,2.89366-5.5645.98538-.50125,1.72437-1.41014,2.08463-2.45534.35359-1.02564,1.05677-1.95565,2.12799-2.60567,1.52022-.92289,3.5001-.92289,5.02032,0,1.071.65025,1.77418,1.58026,2.12777,2.6059.36026,1.04521,1.09947,1.95387,2.08463,2.45512,1.96009.9965,3.22991,3.14273,2.89411,5.56383ZM143.19269,199.74386c-2.00502,0-3.6302-1.97766-3.6302-4.41722s1.62518-4.41744,3.6302-4.41744,3.6302,1.97788,3.6302,4.41744-1.62518,4.41722-3.6302,4.41722Z"/>
</svg>