<?xml version="1.0" encoding="UTF-8"?>
<svg id="Layer_1" data-name="Layer 1" xmlns="http://www.w3.org/2000/svg" version="1.1" viewBox="0 0 250 249.99862">
  <defs>
    <style>
      .cls-1 {
        fill: #000;
        stroke-width: 0px;
      }
    </style>
  </defs>
  <path id="path-01" class="cls-1" d="M74.23915,68.99508c4.70572-4.27828,9.94494-7.97659,15.59576-11.00229l-7.06167-7.06167c2.40091-1.24414,4.65699-2.86607,6.67105-4.88028,10.53487-10.53487,10.53487-27.61511,0-38.14968-5.26744-5.26744-12.17129-7.90115-19.07499-7.90115s-13.80741,2.63372-19.07484,7.90085c-10.53397,10.53397-10.53472,27.6127-.00211,38.14757.00075.0006.00166.00121.00241.00211l22.9444,22.94455ZM61.97658,18.58298c4.63526-4.63526,12.15062-4.63526,16.78588,0,4.63526,4.63526,4.63526,12.15047,0,16.78573-4.63541,4.63556-12.15062,4.63556-16.78588,0-4.63541-4.63496-4.63526-12.15047,0-16.78573ZM50.93129,82.77322l7.06107,7.06107c3.026-5.65066,6.72446-10.88974,11.00289-15.5953l-22.9444-22.94455c-5.26744-5.26744-12.17114-7.90115-19.07499-7.90115s-13.80741,2.63372-19.07484,7.90115c-10.53472,10.53457-10.53472,27.61481.00015,38.14968,5.26744,5.26744,12.17114,7.90115,19.07484,7.90115s13.80756-2.63372,19.07484-7.90115c2.01421-2.01391,3.6363-4.27014,4.88044-6.6709ZM35.36888,78.76229c-4.63526,4.63526-12.15047,4.63526-16.78588,0-4.63526-4.63526-4.63526-12.15047,0-16.78603,4.63541-4.63496,12.15062-4.63496,16.78588,0,4.63541,4.63556,4.63541,12.15077,0,16.78603ZM188.26258,172.35494c.88263-1.18379,1.72181-2.40106,2.53701-3.63554l45.47207,47.98056.37674,14.10222-48.38582-58.44724ZM183.46362,178.18394l48.42399,58.4934-15.18733-.40586-47.98071-45.47207c5.42676-3.58334,10.38611-7.81908,14.74405-12.61547ZM93.34025,196.20988l5.2089,5.20859c1.44842,1.44842,1.44842,3.79487,0,5.2433-.72421.72421-1.67293,1.08632-2.62165,1.08632s-1.89744-.36211-2.62165-1.08632l-20.84886-20.84765-6.76912,6.76897,20.84901,20.85007c1.44842,1.44842,1.44842,3.79487,0,5.2433-.72421.72421-1.67293,1.08632-2.62165,1.08632s-1.89744-.36211-2.62165-1.08632l-20.84901-20.85007-6.76897,6.76897,20.84901,20.85007c1.44842,1.44842,1.44842,3.79487,0,5.2433-.72421.72421-1.67293,1.08632-2.62165,1.08632s-1.89744-.36211-2.62165-1.08632l-20.84901-20.85007-6.76882,6.76897,20.84886,20.85007c.69524.69524,1.08632,1.63913,1.08632,2.62165,0,.98493-.39107,1.9264-1.08632,2.62165l-6.21374,6.21133c-.72421.72421-1.67293,1.08632-2.62165,1.08632s-1.89744-.36211-2.62165-1.08632l-23.52482-23.52482c-3.75987-3.75866-5.83111-8.75814-5.83111-14.07386s2.07125-10.31519,5.83111-14.07627l31.96657-31.96672c7.88456,13.42025,19.69027,24.26352,33.84319,30.93925ZM248.91368,51.05514c1.44842,1.44842,1.44842,3.79487,0,5.2433l-6.21253,6.21374c-1.39049,1.39049-3.85281,1.39049-5.2433,0l-20.85007-20.85007-6.76897,6.76897,20.84886,20.85007c1.44842,1.44842,1.44842,3.79487,0,5.2433-.72421.72421-1.67293,1.08632-2.62165,1.08632s-1.89744-.36211-2.62165-1.08632l-20.84886-20.85007-6.77003,6.77018,20.84992,20.84886c1.44842,1.44842,1.44842,3.79487,0,5.2433-.72421.72421-1.67293,1.08632-2.62165,1.08632s-1.89744-.36211-2.62165-1.08632l-20.84992-20.84886-6.76897,6.76897,20.84992,20.84886c1.44842,1.44842,1.44842,3.79487,0,5.2433-.72421.72421-1.67293,1.08632-2.62165,1.08632s-1.89744-.36211-2.62165-1.08632l-5.2104-5.2101c-6.67603-14.15231-17.51945-25.95757-30.9391-33.84122l31.96718-31.96733c7.75993-7.75873,20.38898-7.75873,28.15133,0l23.52482,23.52482ZM126.22129,56.2912c-38.56067,0-69.93113,31.37045-69.93113,69.92992s31.37045,69.92992,69.93113,69.92992,69.92992-31.37045,69.92992-69.92992-31.37045-69.92992-69.92992-69.92992ZM147.02624,83.36949c7.22341,1.55947,11.3902,10.64652,9.30688,20.29665-2.08332,9.64982-9.6278,16.20847-16.85121,14.649-7.22341-1.55947-11.39035-10.64652-9.30703-20.29635,2.08332-9.64982,9.62795-16.20877,16.85136-14.6493ZM105.41528,83.36949c7.22341-1.55947,14.76804,4.99948,16.85136,14.6493,2.08317,9.64982-2.08362,18.73688-9.30703,20.29635-7.22341,1.55947-14.76804-4.99918-16.85121-14.649-2.08332-9.65013,2.08347-18.73718,9.30688-20.29665ZM81.98641,136.14675c-6.79583-5.17842-9.16279-13.49962-5.2866-18.5866,3.87604-5.08699,12.52736-5.01306,19.32319.16536,6.79567,5.17812,9.16264,13.49962,5.2866,18.5863-3.87619,5.08699-12.52736,5.01336-19.32319-.16506ZM142.54412,169.09266c-3.87408.62343-7.53633-.18467-10.54347-1.9771-3.55166-2.11772-8.00813-2.11772-11.55978,0-3.00714,1.79242-6.66939,2.60052-10.54362,1.9771-6.60481-1.06248-11.8887-6.4648-12.82791-13.08802-1.0394-7.32903,3.02856-13.85207,9.16158-16.54131,2.39669-1.05131,4.20722-3.10234,4.71568-5.66937.70203-3.54441,2.64353-6.89088,5.8284-9.34445,5.49451-4.23272,13.39687-4.23272,18.89153,0,3.18472,2.45357,5.12637,5.80003,5.82825,9.34445.50846,2.56703,2.31899,4.61806,4.71568,5.66937,6.13317,2.68924,10.20113,9.21228,9.16174,16.54161-.93936,6.62322-6.22325,12.02524-12.82806,13.08772ZM151.13192,136.31181c-3.87604-5.08668-1.50923-13.40818,5.2866-18.5863,6.79583-5.17842,15.44714-5.25235,19.32319-.16536,3.87619,5.08699,1.50923,13.40818-5.2866,18.5866s-15.44699,5.25205-19.32319.16506Z"/>
</svg>